<svg xmlns="http://www.w3.org/2000/svg" width="99" height="14" viewBox="0 0 99 14">
    <defs>
        <filter id="lnmucucpoa">
            <feColorMatrix in="SourceGraphic" values="0 0 0 0 1.000000 0 0 0 0 1.000000 0 0 0 0 1.000000 0 0 0 1.000000 0"/>
        </filter>
        <filter id="1j01qyo5qb">
            <feColorMatrix in="SourceGraphic" values="0 0 0 0 0.339318 0 0 0 0 0.758407 0 0 0 0 0.545242 0 0 0 1.000000 0"/>
        </filter>
        <filter id="bz791y0a9c">
            <feColorMatrix in="SourceGraphic" values="0 0 0 0 1.000000 0 0 0 0 1.000000 0 0 0 0 1.000000 0 0 0 1.000000 0"/>
        </filter>
        <filter id="5va1xb7eld">
            <feColorMatrix in="SourceGraphic" values="0 0 0 0 0.209122 0 0 0 0 0.315270 0 0 0 0 0.526162 0 0 0 1.000000 0"/>
        </filter>
    </defs>
    <g fill="none" fill-rule="evenodd">
        <g>
            <g>
                <g>
                    <g filter="url(#lnmucucpoa)" transform="translate(-92 -17) translate(92 16.994) translate(2.081 .566)">
                        <g>
                            <path fill="#355086" d="M4.601 0l.75.708-3.85 3.632 3.85 3.632-.75.708L0 4.34 4.601 0zm11.906 0l4.601 4.34-4.601 4.34-.75-.708 3.851-3.632L15.757.708l.75-.708z" transform="translate(0 1.96)"/>
                        </g>
                    </g>
                    <g filter="url(#1j01qyo5qb)" transform="translate(-92 -17) translate(92 16.994) translate(2.081 .566)">
                        <g>
                            <path fill="#57C18B" d="M2.552 10.211c-1.025-.292-1.115-2.472.322-4.336C4.31 4.011 5.927 2.825 7.187.225c.204-.422.34-.15.405.007 1.72 4.143 1.767 11.582-3.673 10.477-1.465 1.314-2.651 2.13-3.56 2.451L0 12.482c2.335-.847 6.107-4.574 7.005-8.979-.02.001-.035-.009-.052.056C6 7.017 3.19 9.669 2.553 10.21z" transform="translate(5.351)"/>
                        </g>
                    </g>
                </g>
                <g filter="url(#bz791y0a9c)" transform="translate(-92 -17) translate(92 16.994)">
                    <g filter="url(#5va1xb7eld)" transform="translate(24.378)">
                        <path fill="#355086" fill-rule="nonzero" d="M19.349 4.24l.05.048-.84.787c-1.22-1.142-3.196-1.142-4.415 0-1.219 1.142-1.219 2.994 0 4.136 1.207 1.13 3.156 1.142 4.378.034l.037-.034.84.788c-1.683 1.577-4.412 1.577-6.096 0-1.683-1.577-1.683-4.134 0-5.711 1.667-1.562 4.359-1.577 6.046-.047zm23.313-1.135c2.381 0 4.311 1.808 4.311 4.038 0 2.23-1.93 4.039-4.31 4.039-2.382 0-4.312-1.808-4.312-4.039 0-2.23 1.93-4.038 4.311-4.038zm-18.878 0c2.38 0 4.31 1.808 4.31 4.038 0 2.23-1.93 4.039-4.31 4.039-2.381 0-4.311-1.808-4.311-4.039 0-2.23 1.93-4.038 4.31-4.038zM56.114.424v10.688h-1.188V9.928c-.785.772-1.893 1.254-3.122 1.254-2.38 0-4.31-1.808-4.31-4.039 0-2.23 1.93-4.038 4.31-4.038 1.229 0 2.337.481 3.122 1.254V.424h1.189zM38.37 1.847l.068.063-.84.788c-1.8-1.686-4.718-1.686-6.518 0-1.8 1.686-1.8 4.42 0 6.105 1.782 1.67 4.66 1.686 6.463.05l.054-.05.841.788c-2.264 2.12-5.934 2.12-8.198 0-2.264-2.121-2.264-5.56 0-7.68 2.24-2.1 5.86-2.122 8.13-.064zm22.726 1.258c2.357 0 4.272 1.772 4.31 3.971V7.7H58.03l.001.01c.279 1.328 1.518 2.335 3.012 2.357h.052c1.145 0 2.1-.404 2.795-1.283l.025-.033.964.653c-.931 1.206-2.26 1.778-3.784 1.778-2.381 0-4.311-1.808-4.311-4.039 0-2.23 1.93-4.038 4.31-4.038zm-53.886 0c2.357 0 4.273 1.772 4.31 3.971l.001.624H4.144l.002.01c.279 1.328 1.518 2.335 3.012 2.357h.051c1.146 0 2.102-.404 2.796-1.283l.025-.033.964.653c-.931 1.206-2.26 1.778-3.785 1.778-2.38 0-4.31-1.808-4.31-4.039 0-2.23 1.93-4.038 4.31-4.038zm35.453 1.114c-1.724 0-3.121 1.309-3.121 2.924s1.397 2.925 3.121 2.925 3.122-1.31 3.122-2.925c0-1.615-1.398-2.924-3.122-2.924zm-18.878 0c-1.724 0-3.122 1.309-3.122 2.924s1.398 2.925 3.122 2.925 3.121-1.31 3.121-2.925c0-1.615-1.397-2.924-3.121-2.924zm28.02 0c-1.724 0-3.122 1.309-3.122 2.924s1.398 2.925 3.122 2.925 3.122-1.31 3.122-2.925c0-1.615-1.398-2.924-3.122-2.924zm9.342 0h-.051c-1.502 0-2.757.993-3.055 2.317l-.01.05h6.13l-.002-.01c-.279-1.328-1.518-2.334-3.012-2.357zm-53.885 0H7.21c-1.502 0-2.756.993-3.054 2.317l-.01.05h6.13l-.002-.01C9.994 5.249 8.755 4.243 7.26 4.22z"/>
                    </g>
                </g>
            </g>
        </g>
    </g>
</svg>